<svg width="58" height="58" viewBox="0 0 58 58" fill="none" xmlns="http://www.w3.org/2000/svg">
<g filter="url(#filter0_d_17_237)">
<path d="M4 19C4 8.50659 12.5066 0 23 0H35C45.4934 0 54 8.50659 54 19V31C54 41.4934 45.4934 50 35 50H23C12.5066 50 4 41.4934 4 31V19Z" fill="#02897A"/>
<path d="M33.1161 26.5983L23.9732 17.4554C23.8661 17.3393 23.7232 17.2858 23.5714 17.2858C23.5 17.2858 23.4196 17.3036 23.3571 17.3304C23.1429 17.4197 23 17.6251 23 17.8572V31.2858C23 31.5179 23.1429 31.7233 23.3571 31.8126C23.4196 31.8393 23.5 31.8572 23.5714 31.8572C23.7232 31.8572 23.8661 31.7947 23.9732 31.6876L26.7589 28.9018L28.4643 32.9376C28.5893 33.2233 28.9196 33.3661 29.2143 33.2411L30.7946 32.5715C31.0804 32.4465 31.2232 32.1161 31.0982 31.8215L29.3036 27.5715H32.7143C32.9464 27.5715 33.1518 27.4286 33.2411 27.2143C33.3304 27.009 33.2857 26.759 33.1161 26.5983Z" fill="white"/>
</g>
<defs>
<filter id="filter0_d_17_237" x="0" y="0" width="59" height="58" filterUnits="userSpaceOnUse" color-interpolation-filters="sRGB">
<feFlood flood-opacity="0" result="BackgroundImageFix"/>
<feColorMatrix in="SourceAlpha" type="matrix" values="0 0 0 0 0 0 0 0 0 0 0 0 0 0 0 0 0 0 127 0" result="hardAlpha"/>
<feOffset dy="4"/>
<feGaussianBlur stdDeviation="2"/>
<feColorMatrix type="matrix" values="0 0 0 0 0 0 0 0 0 0 0 0 0 0 0 0 0 0 0.25 0"/>
<feBlend mode="normal" in2="BackgroundImageFix" result="effect1_dropShadow_17_237"/>
<feBlend mode="normal" in="SourceGraphic" in2="effect1_dropShadow_17_237" result="shape"/>
</filter>
</defs>
</svg>
